<svg xmlns="http://www.w3.org/2000/svg" viewBox="0 0 280.62 72.11"><g data-name="Layer 2"><path d="M0 0h28.15C39.68 0 51.4 5.51 51.4 19.17A16 16 0 0 1 38.75 35C48.64 37.53 54 44.16 54 53.34c0 14.69-14.17 18-25.8 18H0zm3.27 33.5h25.81c8.57 0 19.07-2.65 19.07-14.38 0-12.44-11-15.91-20-15.91H3.27zm0 34.78h24.89c9.79 0 22.54-2.25 22.54-15-.1-12.34-11.12-16.62-21.62-16.62H3.27zm84.97-48.09c13.67 0 25.5 10 25.5 26.11 0 16.42-11.93 25.7-25.6 25.7s-25.5-9.28-25.5-25.7 11.79-26.11 25.6-26.11zm-.1 3C76.21 23.19 65.7 32 65.7 46.35S76.2 69.1 88.14 69.1s22.54-8.37 22.54-22.75-10.31-23.2-22.55-23.2zm31-2.19h3.47l16.12 46.2L155.25 21H157l16.32 46.2 16-46.2h3.47l-18 50.38h-3.29l-15.5-44-15.6 44h-3.26zm117.1 8.17c-4.28-4.08-10.09-6-16.72-6-8.77 0-16.73 2.86-16.73 10.51 0 8.36 10.51 9.08 16.83 10.4 8.77 1.74 20.6 2.75 20.6 14.07 0 10.61-11.12 13.77-20.5 13.77-9.08 0-18.06-3.77-21.73-10.3l2.45-1.74c4.29 6.53 12.24 9.19 19.38 9.19 6.43 0 17.34-1.84 17.34-11 0-8.47-9.59-9.48-18.16-11.12-9.79-1.84-19.28-3.47-19.28-13.26 0-9.49 9.59-13.36 19.79-13.36 7.24 0 13.77 2.14 18.67 6.73zM260.21 5.5V21h18v2.65h-18V56.4c0 7.34 1.12 12.85 10 12.85a24 24 0 0 0 9.08-2.55l1.33 2.55a24 24 0 0 1-10.2 2.86c-10.61-.1-13.26-5.82-13.26-15.71V23.66h-11V21h11V5.81zm-194.15.76h44.49v2.65H66.06z" fill="#fff" data-name="Layer 1"></path></g></svg>